<svg xmlns="http://www.w3.org/2000/svg" width="438.48" height="64.633" viewBox="0 0 438.48 64.633">
  <path id="Path_1" data-name="Path 1" d="M11.58-15.84q-.06.54-.12.96t-.09.96q-.03.54-.06,1.35t-.03,2.13a33.937,33.937,0,0,0,.15,3.54,9.452,9.452,0,0,0,.45,2.19,2.207,2.207,0,0,0,.75,1.11,1.957,1.957,0,0,0,1.11.3,3.72,3.72,0,0,0,.9-.12q.12,0,.21.33t-.03.45a9.872,9.872,0,0,1-1.41.87A24.14,24.14,0,0,1,11.04-.66Q9.72-.12,8.31.3A8.589,8.589,0,0,1,5.94.72,3.369,3.369,0,0,1,4.62.51Q4.14.3,4.14,0A.625.625,0,0,1,4.2-.36a1.389,1.389,0,0,0,.18-.3,3.175,3.175,0,0,0,.18-.75q.06-.45.18-1.05.12-.84.24-2.13t.24-2.82q.12-1.53.21-3.18t.09-3.21q0-.66-.03-1.65T5.4-18a13.388,13.388,0,0,0-.39-2.97,6.545,6.545,0,0,0-.84-1.98,3.52,3.52,0,0,0-1.14-1.11,2.472,2.472,0,0,0-1.23-.36H1.2a3.052,3.052,0,0,0-.6.06q-.24,0-.24-.54a.288.288,0,0,1,.09-.21,4.574,4.574,0,0,1,.57-.39q.78-.54,2.1-1.32t2.7-1.44q1.38-.66,2.61-1.14a5.721,5.721,0,0,1,1.89-.48q1.74,0,1.74,1.98,0,.3-.06,1.08t-.09,1.59q-.03.81-.09,1.53t-.06.96q1.26-1.2,2.7-2.46a24.22,24.22,0,0,1,3.12-2.31,18.048,18.048,0,0,1,3.54-1.71,11.4,11.4,0,0,1,3.84-.66,8.521,8.521,0,0,1,5.91,2.07q2.31,2.07,2.31,6.57,0,1.2-.15,2.82t-.33,3.36q-.18,1.74-.33,3.42t-.15,3q0,4.8,3.12,4.8a5.061,5.061,0,0,0,1.35-.21q.75-.21,1.44-.48t1.23-.54a3.028,3.028,0,0,0,.72-.45q.06-.06.15.09a1.444,1.444,0,0,1,.15.39,1.041,1.041,0,0,1,.03.42.459.459,0,0,1-.09.24q-.48.3-2.07,1.14T34.71-1.53Q32.76-.66,30.84.03a9.668,9.668,0,0,1-3.06.69A2.271,2.271,0,0,1,25.89.06a2.227,2.227,0,0,1-.51-1.38,6.087,6.087,0,0,1,.15-1.2q.15-.72.39-2.34.24-1.74.45-4.08t.21-5.04q0-5.28-1.95-8.01a5.821,5.821,0,0,0-4.89-2.73,7.282,7.282,0,0,0-3.3.72,7.541,7.541,0,0,0-2.46,1.95,9.8,9.8,0,0,0-1.62,2.82A13.31,13.31,0,0,0,11.58-15.84Zm37.14,5.4q0,1.26.06,2.43A5.859,5.859,0,0,0,49.2-6a3.128,3.128,0,0,0,1.08,1.35,3.494,3.494,0,0,0,2.04.51,8.632,8.632,0,0,0,1.5-.15,12.32,12.32,0,0,0,1.59-.39q.75-.24,1.32-.48a2.737,2.737,0,0,0,.69-.36q.18-.18.24,0a1.065,1.065,0,0,1,.03.45,1.821,1.821,0,0,1-.15.54.882.882,0,0,1-.3.39q-.6.3-2.1,1.08T51.6-1.44A36.314,36.314,0,0,1,47.85-.03a10.621,10.621,0,0,1-3.03.57A2.8,2.8,0,0,1,42.66-.3a2.967,2.967,0,0,1-.78-2.1q0-.42.03-.72T42-3.9q.06-.6.21-2.19t.3-3.57q.15-1.98.27-3.99t.12-3.45v-2.1a18.789,18.789,0,0,0-.18-2.76,4.834,4.834,0,0,0-.6-1.86,2.477,2.477,0,0,0-.75-.69,2.123,2.123,0,0,0-1.11-.27,1.859,1.859,0,0,0-.72.15,1.584,1.584,0,0,1-.54.15q-.12,0-.39-.36t.03-.54a15.565,15.565,0,0,1,1.74-.96l2.88-1.44q1.68-.84,3.24-1.47a7.065,7.065,0,0,1,2.22-.63.971.971,0,0,1,.9.39,1.627,1.627,0,0,1,.24.87v.24a16.015,16.015,0,0,1-.18,1.92q-.18,1.32-.39,3.24t-.39,4.44q-.18,2.52-.18,5.46Zm-2.4-31.2a2.863,2.863,0,0,1,.99.66,18.068,18.068,0,0,1,1.41,1.38,19.315,19.315,0,0,1,1.26,1.5,2.365,2.365,0,0,1,.54.96q0,.3-.72.9t-1.65,1.23q-.93.63-1.8,1.11a3.165,3.165,0,0,1-1.23.48,2.427,2.427,0,0,1-.87-.57q-.69-.57-1.41-1.29t-1.29-1.41a2.178,2.178,0,0,1-.57-.93q0-.3.78-.93t1.71-1.32a20.078,20.078,0,0,1,1.8-1.2A9.5,9.5,0,0,1,46.32-41.64ZM95.46-26.28a11.561,11.561,0,0,1-3.99,1.59,27.018,27.018,0,0,1-6.45.69q-.72,0-1.59.03t-1.35.03a10.934,10.934,0,0,1-.57,4.68,36.974,36.974,0,0,1-1.86,4.53Q78.6-12.6,77.7-10.98a5.825,5.825,0,0,0-.9,2.34,2.722,2.722,0,0,0,.84,1.86,13.982,13.982,0,0,0,2.1,1.8q1.26.9,2.7,1.83a27.6,27.6,0,0,1,2.7,1.98,10.832,10.832,0,0,1,2.1,2.31,4.874,4.874,0,0,1,.84,2.76,8.971,8.971,0,0,1-1.65,4.74,20.1,20.1,0,0,1-4.47,4.83,25.7,25.7,0,0,1-6.6,3.75,21.6,21.6,0,0,1-8.04,1.5,24.082,24.082,0,0,1-4.29-.42,19.6,19.6,0,0,1-4.26-1.26,10.87,10.87,0,0,1-3.24-2.07,3.89,3.89,0,0,1-1.29-2.91,4.327,4.327,0,0,1,1.47-2.52A40.869,40.869,0,0,1,59.1,6.36q1.92-1.62,3.78-3.12A21.927,21.927,0,0,0,65.52.84a.763.763,0,0,1,.45.24.711.711,0,0,1,.27.54.122.122,0,0,1-.03.09.122.122,0,0,0-.03.09q-.6.48-1.47,1.2T63,4.56a9.671,9.671,0,0,0-1.44,1.83,3.748,3.748,0,0,0-.6,1.95,3.958,3.958,0,0,0,.99,2.49,9.7,9.7,0,0,0,2.58,2.19,15.4,15.4,0,0,0,3.63,1.56,14.6,14.6,0,0,0,4.14.6q4.32,0,6.57-1.89a6.553,6.553,0,0,0,2.25-5.31,5.2,5.2,0,0,0-.81-2.76,12.724,12.724,0,0,0-1.98-2.46A20.876,20.876,0,0,0,75.75.63Q74.34-.36,73.17-1.2a24.61,24.61,0,0,1-1.98-1.56,1.939,1.939,0,0,1-.81-1.32,2.909,2.909,0,0,1,.33-1.23,15.606,15.606,0,0,1,.75-1.38q.42-.69.75-1.26a1.983,1.983,0,0,0,.33-.87q0,.06-.12-.18a5.17,5.17,0,0,1-1.2.84,12.266,12.266,0,0,1-1.83.78,17.981,17.981,0,0,1-2.22.6,11.764,11.764,0,0,1-2.37.24,10.08,10.08,0,0,1-4.02-.75A8.5,8.5,0,0,1,57.87-9.3a8.5,8.5,0,0,1-1.77-2.91,10.191,10.191,0,0,1-.6-3.51,12.5,12.5,0,0,1,.81-4.74,11.592,11.592,0,0,1,2.04-3.36,12.31,12.31,0,0,1,2.61-2.25q1.38-.87,2.52-1.47a13.155,13.155,0,0,1,1.71-.69q.99-.33,2.13-.6t2.34-.45a15.393,15.393,0,0,1,2.28-.18,18.482,18.482,0,0,1,6.12.84,10.073,10.073,0,0,1,3.06,1.5,22.892,22.892,0,0,0,2.58.18q1.86.06,3.96.06h7.26a3.053,3.053,0,0,0,.6-.06q.3.06.24.3A.537.537,0,0,1,95.46-26.28ZM70.74-10.08a4.235,4.235,0,0,0,1.68-.36,3.972,3.972,0,0,0,1.53-1.23,7.091,7.091,0,0,0,1.14-2.34,12.813,12.813,0,0,0,.45-3.69,15.068,15.068,0,0,0-.45-3.78,8.973,8.973,0,0,0-1.35-3,6.276,6.276,0,0,0-2.22-1.95,6.649,6.649,0,0,0-3.12-.69,5.739,5.739,0,0,0-4.38,1.95,7.887,7.887,0,0,0-1.8,5.55,9.632,9.632,0,0,0,.72,3.72,10.359,10.359,0,0,0,1.89,3.03,8.8,8.8,0,0,0,2.73,2.04A7.267,7.267,0,0,0,70.74-10.08Zm28.2-13.26q1.2-1.08,2.7-2.25a31.3,31.3,0,0,1,3.15-2.16,18.691,18.691,0,0,1,3.45-1.62A11.007,11.007,0,0,1,111.9-30a11.719,11.719,0,0,1,4.05.69,9.9,9.9,0,0,1,3.33,2.01,9.728,9.728,0,0,1,2.28,3.15,9.741,9.741,0,0,1,.84,4.11,22.131,22.131,0,0,1-1.59,8.49,32.047,32.047,0,0,1-3.72,6.78A32.7,32.7,0,0,1,112.86.06a22.139,22.139,0,0,1-3.12,2.52.455.455,0,0,1-.6-.12.438.438,0,0,1,0-.66A8.966,8.966,0,0,0,110.61.03a24.432,24.432,0,0,0,2.01-3.57,31.788,31.788,0,0,0,1.8-4.92,21.762,21.762,0,0,0,.78-5.94,15.871,15.871,0,0,0-.63-4.68,10.539,10.539,0,0,0-1.71-3.42,7.481,7.481,0,0,0-2.49-2.1,6.568,6.568,0,0,0-3.03-.72,8.6,8.6,0,0,0-2.28.33,9.131,9.131,0,0,0-2.22.93,12.854,12.854,0,0,0-2.1,1.62,6.649,6.649,0,0,0-1.5,1.98q-.12.24-.21.45a3.727,3.727,0,0,0-.18.6q-.09.39-.18.99t-.15,1.62q-.18,1.74-.27,3.39t-.09,3.93a21.761,21.761,0,0,0,.36,4.53,2.255,2.255,0,0,0,2.1,1.83,3.441,3.441,0,0,0,.42-.03q.24-.03.54-.09.24-.06.6-.18a.288.288,0,0,1,.27.18.8.8,0,0,1,.09.36q0,.18-.66.54a14.073,14.073,0,0,1-1.68.75q-1.02.39-2.25.78t-2.31.75q-1.14.3-1.95.54a4.806,4.806,0,0,1-1.11.24q-1.8,0-1.8-1.38a4.279,4.279,0,0,1,.3-1.14,11.893,11.893,0,0,0,.48-2.58q.24-2.52.48-5.55t.39-6.09q.15-3.06.24-6t.09-5.28q0-4.32-.15-7.32t-.27-4.26a11.551,11.551,0,0,0-.36-2.07,5.684,5.684,0,0,0-.42-.93,1.694,1.694,0,0,0-.75-.75,3.133,3.133,0,0,0-.84-.27,2.572,2.572,0,0,0-.66-.03q-.27.03-.27-.09a1.869,1.869,0,0,1,.54-1.38,1.946,1.946,0,0,1,1.44-.54q1.74,0,3.6-.06t3.42-.18a20.173,20.173,0,0,0,2.43-.36q1.11-.24,1.47-.36.48-.06.51.15a6.22,6.22,0,0,1,.03.75.589.589,0,0,1-.3.54,3.316,3.316,0,0,1-.66.3q-.36.12-.69.21a.755.755,0,0,0-.45.27,7.338,7.338,0,0,0-.48,2.22q-.24,1.86-.45,4.71t-.36,6.33q-.15,3.48-.21,7.02Zm56.16,15q.12-.12.21.03a1.05,1.05,0,0,1,.12.42,1.854,1.854,0,0,1-.03.57.913.913,0,0,1-.24.48,26.157,26.157,0,0,1-3,2.4q-1.8,1.26-3.72,2.34-.54.3-1.5.78t-2.13.93a24.018,24.018,0,0,1-2.4.78,8.935,8.935,0,0,1-2.31.33,10.068,10.068,0,0,1-4.08-.84,10.607,10.607,0,0,1-3.36-2.31,10.473,10.473,0,0,1-2.25-3.51,11.924,11.924,0,0,1-.81-4.44,16.049,16.049,0,0,1,.72-4.86,25.852,25.852,0,0,1,1.65-4.08,29.2,29.2,0,0,1,1.77-3.03,17.905,17.905,0,0,0,1.14-1.83q-1.14-.06-2.07-.09t-1.77-.03q-1.92,0-3.24.03a11.408,11.408,0,0,0-2.34.27,2.2,2.2,0,0,0-.9.48,5.562,5.562,0,0,1-.72.54l-.33-.33a.631.631,0,0,1-.21-.45.244.244,0,0,1,.06-.18,4.764,4.764,0,0,1,.78-.69q.78-.63,1.95-1.5l2.58-1.92q1.41-1.05,2.7-1.95t2.22-1.53a8.922,8.922,0,0,1,1.23-.75.793.793,0,0,1,.72.12q.36.24.24.36a5.165,5.165,0,0,0-.54.45q-.36.33-.24.57a6.216,6.216,0,0,0,2.28.96,30.743,30.743,0,0,0,3.66.69q2.04.27,4.2.42t3.9.15q2.58,0,4.14-.15a19.883,19.883,0,0,0,2.58-.39,12.186,12.186,0,0,0,1.26-.36q.06,0,.24.18a.576.576,0,0,1,.18.42q0,.12-.87.6t-1.77,1.02q-.54.3-1.29.78t-1.62.93a16.879,16.879,0,0,1-1.83.81,6.534,6.534,0,0,1-1.86.42q-.9.12-2.1.18t-2.52.09l-2.67.06q-1.35.03-2.49.03-.18.3-.57.99a10.217,10.217,0,0,0-.75,1.77,23.85,23.85,0,0,0-.66,2.46,14.121,14.121,0,0,0-.3,3,13.208,13.208,0,0,0,.75,4.53,10.735,10.735,0,0,0,2.1,3.57,9.567,9.567,0,0,0,3.21,2.34,9.652,9.652,0,0,0,4.02.84,9.745,9.745,0,0,0,2.43-.3,13.232,13.232,0,0,0,2.22-.78,16.324,16.324,0,0,0,1.95-1.05,15.946,15.946,0,0,0,1.56-1.11Zm55.98,3.12a.243.243,0,0,1,.24.21,1.877,1.877,0,0,1,.06.51.476.476,0,0,1-.12.39,2.253,2.253,0,0,0-.24.21q-.42.24-2.01,1.02t-3.54,1.59q-1.95.81-3.84,1.44a10.005,10.005,0,0,1-2.85.63,3.628,3.628,0,0,1-1.59-.36,1,1,0,0,1-.63-1.14q.12-.48.27-1.44t.27-2.34q.12-1.74.27-4.02t.15-5.04a28.49,28.49,0,0,0-.42-5.37,10.252,10.252,0,0,0-1.2-3.39,4.377,4.377,0,0,0-1.92-1.77,6.41,6.41,0,0,0-2.64-.51,5.487,5.487,0,0,0-2.34.45,9.544,9.544,0,0,0-1.68.99,7.028,7.028,0,0,0-2.07,2.61,11.809,11.809,0,0,0-.93,4.17q-.06.66-.09,1.32t-.06,1.44q-.03.78-.06,1.74t-.03,2.28a14.5,14.5,0,0,0,.57,4.92A1.988,1.988,0,0,0,186.6-3.3a3.437,3.437,0,0,0,.6-.03q.12-.03.48-.09a1.966,1.966,0,0,1,.24.3.581.581,0,0,1-.06.66,5,5,0,0,1-1.44.93A21.244,21.244,0,0,1,183.9-.48q-1.38.48-2.7.84a8.338,8.338,0,0,1-1.98.36,5.241,5.241,0,0,1-1.53-.21Q177,.3,177,0a1.934,1.934,0,0,1,.24-.84,5.029,5.029,0,0,0,.36-1.44q.18-1.14.33-2.94t.27-4.17q.12-2.37.12-5.13,0-1.44-.15-3.18a11.649,11.649,0,0,0-.75-3.27,6.692,6.692,0,0,0-1.77-2.58,4.632,4.632,0,0,0-3.21-1.05,6.62,6.62,0,0,0-2.16.33,6.128,6.128,0,0,0-1.62.81,9.42,9.42,0,0,0-2.25,2.52,10.278,10.278,0,0,0-1.23,4.26q-.12,1.26-.24,2.61t-.12,3.09q0,2.28.12,3.78a9.973,9.973,0,0,0,.42,2.37,2.568,2.568,0,0,0,.72,1.2,1.7,1.7,0,0,0,1.08.33,2.272,2.272,0,0,0,.9-.12q.3-.12.42.36t-.06.6a5.975,5.975,0,0,1-1.26.75q-1.02.51-2.34,1.05t-2.7.96a8.287,8.287,0,0,1-2.34.42,4.217,4.217,0,0,1-1.59-.24q-.57-.24-.57-.54a2.06,2.06,0,0,1,.12-.39,5.89,5.89,0,0,0,.18-.57q.24-1.86.45-3.45t.3-3.45q.09-1.86.15-4.26t.06-5.82a8.855,8.855,0,0,0-1.05-4.86q-1.05-1.56-2.19-1.56a3.123,3.123,0,0,0-.81.09q-.33.09-.63.15-.36.06-.36-.36v-.42q.06-.06,1.2-.84t2.7-1.68a35.158,35.158,0,0,1,3.24-1.65,7.162,7.162,0,0,1,2.76-.75,1.872,1.872,0,0,1,1.23.42,1.945,1.945,0,0,1,.51,1.56q0,.54-.03,1.2t-.06,1.38q-.03.72-.09,1.41t-.06,1.17q.84-.78,2.13-2.04a23.539,23.539,0,0,1,2.91-2.4,20.659,20.659,0,0,1,3.51-1.98,9.716,9.716,0,0,1,3.99-.84,6.34,6.34,0,0,1,4.5,1.62q1.74,1.62,1.86,5.64.96-.9,2.34-2.16a25.776,25.776,0,0,1,3.09-2.4,20.3,20.3,0,0,1,3.63-1.92,10.28,10.28,0,0,1,3.9-.78q6.96,0,6.96,7.38,0,1.2-.12,2.76t-.3,3.27q-.18,1.71-.3,3.39t-.12,3.06q0,6.24,3.3,6.24a5.458,5.458,0,0,0,1.2-.15q.66-.15,1.32-.36t1.2-.42a3.464,3.464,0,0,0,.78-.39Zm23.52.42q-.66.54-1.8,1.44a25.142,25.142,0,0,1-2.64,1.8,17.863,17.863,0,0,1-3.3,1.53,11.359,11.359,0,0,1-3.78.63,12.917,12.917,0,0,1-5.34-1.05,11.568,11.568,0,0,1-3.93-2.82,11.809,11.809,0,0,1-2.4-4.17,15.843,15.843,0,0,1-.81-5.1,15.434,15.434,0,0,1,.96-5.64,17.261,17.261,0,0,1,2.37-4.29,16.282,16.282,0,0,1,3.03-3.06,23.907,23.907,0,0,1,2.94-1.95,15.173,15.173,0,0,1,1.53-.78,19.814,19.814,0,0,1,2.04-.78,23.184,23.184,0,0,1,2.4-.63,13,13,0,0,1,2.67-.27,19.029,19.029,0,0,1,5.01.66,12.4,12.4,0,0,1,4.29,2.07,10.484,10.484,0,0,1,3,3.63,11.567,11.567,0,0,1,1.14,5.34,12.142,12.142,0,0,1-.93,4.74,19.7,19.7,0,0,1-2.19,3.96,24.62,24.62,0,0,1-2.49,2.97Zm-6.78.96a6.046,6.046,0,0,0,5.25-2.58Q234.9-9,234.9-14.34a16.138,16.138,0,0,0-.75-5.01,13.18,13.18,0,0,0-2.1-4.05,10.189,10.189,0,0,0-3.15-2.73,7.962,7.962,0,0,0-3.9-.99,5.611,5.611,0,0,0-2.85.78,7.42,7.42,0,0,0-2.37,2.25,12,12,0,0,0-1.62,3.57,17.257,17.257,0,0,0-.6,4.74,13.728,13.728,0,0,0,.87,5.04,11.542,11.542,0,0,0,2.31,3.75,10.05,10.05,0,0,0,3.27,2.34A9.315,9.315,0,0,0,227.82-3.84Zm45.66-4.5q.12-.12.21.03a1.05,1.05,0,0,1,.12.42,1.854,1.854,0,0,1-.03.57.912.912,0,0,1-.24.48,26.16,26.16,0,0,1-3,2.4q-1.8,1.26-3.72,2.34-.54.3-1.5.78t-2.13.93a24.019,24.019,0,0,1-2.4.78,8.935,8.935,0,0,1-2.31.33,10.068,10.068,0,0,1-4.08-.84,10.607,10.607,0,0,1-3.36-2.31,10.474,10.474,0,0,1-2.25-3.51,11.924,11.924,0,0,1-.81-4.44,16.049,16.049,0,0,1,.72-4.86,25.851,25.851,0,0,1,1.65-4.08,29.2,29.2,0,0,1,1.77-3.03,17.9,17.9,0,0,0,1.14-1.83q-1.14-.06-2.07-.09t-1.77-.03q-1.92,0-3.24.03a11.408,11.408,0,0,0-2.34.27,2.2,2.2,0,0,0-.9.48,5.562,5.562,0,0,1-.72.54l-.33-.33a.631.631,0,0,1-.21-.45.244.244,0,0,1,.06-.18,4.763,4.763,0,0,1,.78-.69q.78-.63,1.95-1.5l2.58-1.92q1.41-1.05,2.7-1.95t2.22-1.53a8.922,8.922,0,0,1,1.23-.75.793.793,0,0,1,.72.12q.36.24.24.36a5.164,5.164,0,0,0-.54.45q-.36.33-.24.57a6.216,6.216,0,0,0,2.28.96,30.742,30.742,0,0,0,3.66.69q2.04.27,4.2.42t3.9.15q2.58,0,4.14-.15a19.883,19.883,0,0,0,2.58-.39,12.186,12.186,0,0,0,1.26-.36q.06,0,.24.18a.576.576,0,0,1,.18.42q0,.12-.87.6t-1.77,1.02q-.54.3-1.29.78t-1.62.93a16.879,16.879,0,0,1-1.83.81,6.534,6.534,0,0,1-1.86.42q-.9.12-2.1.18t-2.52.09l-2.67.06q-1.35.03-2.49.03-.18.3-.57.99a10.216,10.216,0,0,0-.75,1.77,23.85,23.85,0,0,0-.66,2.46,14.121,14.121,0,0,0-.3,3,13.208,13.208,0,0,0,.75,4.53,10.735,10.735,0,0,0,2.1,3.57,9.567,9.567,0,0,0,3.21,2.34,9.652,9.652,0,0,0,4.02.84,9.745,9.745,0,0,0,2.43-.3,13.232,13.232,0,0,0,2.22-.78,16.325,16.325,0,0,0,1.95-1.05,15.944,15.944,0,0,0,1.56-1.11Zm9.3-15q1.2-1.08,2.7-2.25a31.3,31.3,0,0,1,3.15-2.16,18.692,18.692,0,0,1,3.45-1.62,11.007,11.007,0,0,1,3.66-.63,11.719,11.719,0,0,1,4.05.69,9.9,9.9,0,0,1,3.33,2.01,9.728,9.728,0,0,1,2.28,3.15,9.741,9.741,0,0,1,.84,4.11,22.131,22.131,0,0,1-1.59,8.49,32.046,32.046,0,0,1-3.72,6.78A32.7,32.7,0,0,1,296.7.06a22.137,22.137,0,0,1-3.12,2.52.455.455,0,0,1-.6-.12.437.437,0,0,1,0-.66A8.967,8.967,0,0,0,294.45.03a24.432,24.432,0,0,0,2.01-3.57,31.784,31.784,0,0,0,1.8-4.92,21.762,21.762,0,0,0,.78-5.94,15.87,15.87,0,0,0-.63-4.68,10.539,10.539,0,0,0-1.71-3.42,7.481,7.481,0,0,0-2.49-2.1,6.568,6.568,0,0,0-3.03-.72,8.6,8.6,0,0,0-2.28.33,9.131,9.131,0,0,0-2.22.93,12.855,12.855,0,0,0-2.1,1.62,6.649,6.649,0,0,0-1.5,1.98q-.12.24-.21.45a3.728,3.728,0,0,0-.18.6q-.09.39-.18.99t-.15,1.62q-.18,1.74-.27,3.39T282-9.48a21.762,21.762,0,0,0,.36,4.53,2.255,2.255,0,0,0,2.1,1.83,3.441,3.441,0,0,0,.42-.03q.24-.03.54-.09.24-.06.6-.18a.288.288,0,0,1,.27.18.8.8,0,0,1,.09.36q0,.18-.66.54a14.073,14.073,0,0,1-1.68.75q-1.02.39-2.25.78t-2.31.75q-1.14.3-1.95.54a4.806,4.806,0,0,1-1.11.24q-1.8,0-1.8-1.38a4.278,4.278,0,0,1,.3-1.14,11.894,11.894,0,0,0,.48-2.58q.24-2.52.48-5.55t.39-6.09q.15-3.06.24-6t.09-5.28q0-4.32-.15-7.32t-.27-4.26a11.551,11.551,0,0,0-.36-2.07,5.683,5.683,0,0,0-.42-.93,1.694,1.694,0,0,0-.75-.75,3.133,3.133,0,0,0-.84-.27,2.572,2.572,0,0,0-.66-.03q-.27.03-.27-.09a1.869,1.869,0,0,1,.54-1.38,1.946,1.946,0,0,1,1.44-.54q1.74,0,3.6-.06t3.42-.18a20.173,20.173,0,0,0,2.43-.36q1.11-.24,1.47-.36.48-.06.51.15a6.222,6.222,0,0,1,.03.75.589.589,0,0,1-.3.54,3.315,3.315,0,0,1-.66.3q-.36.12-.69.21a.755.755,0,0,0-.45.27,7.338,7.338,0,0,0-.48,2.22q-.24,1.86-.45,4.71t-.36,6.33q-.15,3.48-.21,7.02ZM338.76,1.2a12.323,12.323,0,0,0-1.98-.33q-1.38-.15-3.24-.3t-4.02-.3q-2.16-.15-4.35-.24t-4.23-.15q-2.04-.06-3.6-.06-1.5,0-2.46.06T313.23,0q-.69.06-1.17.15T310.98.3a.724.724,0,0,1-.24-.09q-.18-.09-.18-.21a1.223,1.223,0,0,0-.09-.42,2.159,2.159,0,0,1-.12-.45.611.611,0,0,1,.15-.45,2.355,2.355,0,0,1,.72-.54q1.5-1.14,3.6-2.76t4.32-3.57q2.22-1.95,4.44-4.08a43.565,43.565,0,0,0,3.96-4.32,25.622,25.622,0,0,0,2.82-4.32,9.655,9.655,0,0,0,1.14-4.05,15.359,15.359,0,0,0-.51-3.96,10.715,10.715,0,0,0-1.53-3.39,7.812,7.812,0,0,0-2.52-2.34,6.811,6.811,0,0,0-3.48-.87,6.568,6.568,0,0,0-3.18.78,9.511,9.511,0,0,0-2.49,1.92,8.994,8.994,0,0,0-1.65,2.52,6.387,6.387,0,0,0-.6,2.52,1.279,1.279,0,0,1-.06.45q-.06.15-.36.15a1.383,1.383,0,0,1-.75-.33,4.174,4.174,0,0,1-.84-.84,6.908,6.908,0,0,1-.69-1.11,2.663,2.663,0,0,1-.3-1.2,3.654,3.654,0,0,1,1.59-2.97,28.011,28.011,0,0,1,4.65-2.73,34.738,34.738,0,0,1,5.4-1.98,18.978,18.978,0,0,1,4.98-.78,8.525,8.525,0,0,1,3.57.75,8.578,8.578,0,0,1,2.88,2.13,9.9,9.9,0,0,1,1.92,3.33,12.974,12.974,0,0,1,.69,4.35,10.187,10.187,0,0,1-1.05,4.38,25.32,25.32,0,0,1-2.76,4.47,43.323,43.323,0,0,1-3.87,4.41q-2.16,2.16-4.41,4.11t-4.35,3.66L318.06-4.5a18.222,18.222,0,0,0,3,.6,43.117,43.117,0,0,0,6.18.36q2.34,0,4.5-.06a21.562,21.562,0,0,0,3.96-.45,8.177,8.177,0,0,0,3.12-1.35,6.109,6.109,0,0,0,2.04-2.76.651.651,0,0,1,.24-.12.455.455,0,0,1,.36.03.7.7,0,0,1,.3.33.922.922,0,0,1,0,.66,12.9,12.9,0,0,0-.48,1.53q-.24.93-.45,1.95t-.45,2.04Q340.14-.72,339.9,0,339.6,1.2,338.76,1.2Zm5.4-10.38a14.138,14.138,0,0,1-.69-3.57q-.15-2.01-.15-4.11a34.234,34.234,0,0,1,.36-4.05,37.84,37.84,0,0,1,.78-3.87,22.1,22.1,0,0,1,1.17-3.42,12.573,12.573,0,0,1,1.53-2.64,18.4,18.4,0,0,1,3.3-3.3,24.743,24.743,0,0,1,4.05-2.58,23.528,23.528,0,0,1,4.26-1.68,14.4,14.4,0,0,1,3.87-.6,11.2,11.2,0,0,1,5.76,1.44,12.358,12.358,0,0,1,4.08,3.87,17.561,17.561,0,0,1,2.4,5.61,28.125,28.125,0,0,1,.78,6.72q-.06,1.74-.27,3.6a13.812,13.812,0,0,1-.81,3.42,22.5,22.5,0,0,1-3.12,5.76,29.079,29.079,0,0,1-4.5,4.86,23.383,23.383,0,0,1-5.1,3.36A11.6,11.6,0,0,1,356.88.9a12.1,12.1,0,0,1-4.11-.72,13.067,13.067,0,0,1-3.69-2.04,13.975,13.975,0,0,1-2.94-3.18A15.835,15.835,0,0,1,344.16-9.18Zm5.82-10.98a30.7,30.7,0,0,0,.75,6.99,20.316,20.316,0,0,0,2.1,5.55,11.025,11.025,0,0,0,3.27,3.66,7.353,7.353,0,0,0,4.26,1.32,5.373,5.373,0,0,0,3.78-1.44,10.924,10.924,0,0,0,2.55-3.69,20.651,20.651,0,0,0,1.44-5.01,38.8,38.8,0,0,0,.51-5.34,33.193,33.193,0,0,0-.93-8.46,19.057,19.057,0,0,0-2.37-5.64,9.824,9.824,0,0,0-3.15-3.15,6.544,6.544,0,0,0-3.27-.99,5.65,5.65,0,0,0-3.78,1.38,11.535,11.535,0,0,0-2.76,3.63,20.71,20.71,0,0,0-1.74,5.07,30.37,30.37,0,0,0-.66,5.7Zm42.18-2.64a18.11,18.11,0,0,1,3.9.45,11.33,11.33,0,0,1,3.72,1.53,8.489,8.489,0,0,1,2.76,2.94,9.341,9.341,0,0,1,1.08,4.74,8.122,8.122,0,0,1-.72,3.39,12.583,12.583,0,0,1-1.86,2.94,18.386,18.386,0,0,1-2.61,2.52,27.479,27.479,0,0,1-2.97,2.07A30.185,30.185,0,0,1,390.24.21a14.407,14.407,0,0,1-4.68.87,19.4,19.4,0,0,1-5.13-.54Q378.54,0,378.54-.84q0-.78.09-1.77t.21-1.95q.12-.96.24-1.8t.18-1.38a.97.97,0,0,1,.27-.69.474.474,0,0,1,.42-.09.767.767,0,0,1,.39.3.8.8,0,0,1,.18.48,3.033,3.033,0,0,0,.66,1.8,6.854,6.854,0,0,0,1.89,1.68A10.975,10.975,0,0,0,386.04-3a14.665,14.665,0,0,0,3.9.48,5.543,5.543,0,0,0,2.67-.63,5.722,5.722,0,0,0,1.95-1.71,8.126,8.126,0,0,0,1.2-2.55,13.141,13.141,0,0,0,.48-3.15,10.973,10.973,0,0,0-.72-4.05,9.858,9.858,0,0,0-1.95-3.15,8.175,8.175,0,0,0-2.91-2.01,9.541,9.541,0,0,0-3.66-.69,8.107,8.107,0,0,0-1.02.09q-.66.09-1.38.24t-1.29.24q-.57.09-.69.09-.78,0-.78-1.38a.335.335,0,0,1,.18-.33,1.142,1.142,0,0,0,.3-.21q1.74,0,3.63-.15a10.066,10.066,0,0,0,3.45-.87,4.362,4.362,0,0,0,1.47-1.17,9.043,9.043,0,0,0,1.2-1.83,12.163,12.163,0,0,0,.84-2.22,9.016,9.016,0,0,0,.33-2.4,7.444,7.444,0,0,0-1.41-4.77,4.742,4.742,0,0,0-3.93-1.77,5.937,5.937,0,0,0-2.46.54,7.843,7.843,0,0,0-2.16,1.44,7.528,7.528,0,0,0-1.53,1.98,4.592,4.592,0,0,0-.57,2.16.9.9,0,0,1-.39.54.438.438,0,0,1-.63-.06,6.986,6.986,0,0,1-1.2-1.32,4.329,4.329,0,0,1-.78-2.7,2.339,2.339,0,0,1,.93-1.68,8.917,8.917,0,0,1,2.64-1.53,20.455,20.455,0,0,1,4.17-1.11,32.571,32.571,0,0,1,5.46-.42,14.339,14.339,0,0,1,3.03.33,8.421,8.421,0,0,1,2.76,1.11,5.953,5.953,0,0,1,1.98,2.07,6.172,6.172,0,0,1,.75,3.15,6.7,6.7,0,0,1-.72,3.09,10.574,10.574,0,0,1-1.86,2.58,16.677,16.677,0,0,1-2.49,2.1,22.3,22.3,0,0,1-2.67,1.59ZM407.34-9.18a14.138,14.138,0,0,1-.69-3.57q-.15-2.01-.15-4.11a34.234,34.234,0,0,1,.36-4.05,37.84,37.84,0,0,1,.78-3.87,22.1,22.1,0,0,1,1.17-3.42,12.573,12.573,0,0,1,1.53-2.64,18.4,18.4,0,0,1,3.3-3.3,24.743,24.743,0,0,1,4.05-2.58,23.528,23.528,0,0,1,4.26-1.68,14.4,14.4,0,0,1,3.87-.6,11.2,11.2,0,0,1,5.76,1.44,12.358,12.358,0,0,1,4.08,3.87,17.561,17.561,0,0,1,2.4,5.61,28.125,28.125,0,0,1,.78,6.72q-.06,1.74-.27,3.6a13.812,13.812,0,0,1-.81,3.42,22.5,22.5,0,0,1-3.12,5.76,29.079,29.079,0,0,1-4.5,4.86,23.383,23.383,0,0,1-5.1,3.36A11.6,11.6,0,0,1,420.06.9a12.1,12.1,0,0,1-4.11-.72,13.067,13.067,0,0,1-3.69-2.04,13.975,13.975,0,0,1-2.94-3.18A15.835,15.835,0,0,1,407.34-9.18Zm5.82-10.98a30.7,30.7,0,0,0,.75,6.99,20.316,20.316,0,0,0,2.1,5.55,11.025,11.025,0,0,0,3.27,3.66,7.353,7.353,0,0,0,4.26,1.32,5.373,5.373,0,0,0,3.78-1.44,10.924,10.924,0,0,0,2.55-3.69,20.651,20.651,0,0,0,1.44-5.01,38.8,38.8,0,0,0,.51-5.34,33.193,33.193,0,0,0-.93-8.46,19.057,19.057,0,0,0-2.37-5.64,9.824,9.824,0,0,0-3.15-3.15,6.544,6.544,0,0,0-3.27-.99,5.65,5.65,0,0,0-3.78,1.38,11.535,11.535,0,0,0-2.76,3.63,20.71,20.71,0,0,0-1.74,5.07,30.37,30.37,0,0,0-.66,5.7Z" transform="translate(-0.36 45.913)" fill="#cbcbcb"/>
</svg>
